{
  "accessors": [
    {
      "bufferView": 2,
      "componentType": 5126,
      "count": 2738,
      "max": [
        304.5569763183594,
        458.7837219238281,
        257.9338684082031
      ],
      "min": [
        -309.3935241699219,
        0.40533447265625,
        -245.84442138671875
      ],
      "type": "VEC3"
    },
    {
      "bufferView": 2,
      "byteOffset": 32856,
      "componentType": 5126,
      "count": 2738,
      "max": [
        0.9999370574951172,
        1.0,
        0.9994552731513977
      ],
      "min": [
        -0.9997482299804688,
        -1.0,
        -0.9994549751281738
      ],
      "type": "VEC3"
    },
    {
      "bufferView": 1,
      "componentType": 5126,
      "count": 2738,
      "max": [
        1.7643382549285889,
        0.9976888298988342
      ],
      "min": [
        -0.7627953886985779,
        -0.0007305718609131873
      ],
      "type": "VEC2"
    },
    {
      "bufferView": 1,
      "byteOffset": 21904,
      "componentType": 5126,
      "count": 2738,
      "max": [
        0.9753730297088623,
        0.9950854778289795
      ],
      "min": [
        0.0,
        0.0
      ],
      "type": "VEC2"
    },
    {
      "bufferView": 1,
      "byteOffset": 43808,
      "componentType": 5126,
      "count": 2738,
      "max": [
        0.9753730297088623,
        0.9950854778289795
      ],
      "min": [
        0.0,
        0.0
      ],
      "type": "VEC2"
    },
    {
      "bufferView": 0,
      "componentType": 5125,
      "count": 6207,
      "type": "SCALAR"
    },
    {
      "bufferView": 2,
      "byteOffset": 65712,
      "componentType": 5126,
      "count": 1967,
      "max": [
        2.8577115535736084,
        1.657853126525879,
        4.640131950378418
      ],
      "min": [
        -2.6538193225860596,
        -1.8066396713256836,
        0.004053652286529541
      ],
      "type": "VEC3"
    },
    {
      "bufferView": 2,
      "byteOffset": 89316,
      "componentType": 5126,
      "count": 1967,
      "max": [
        1.0,
        1.0,
        1.0
      ],
      "min": [
        -1.0,
        -1.0,
        -1.0
      ],
      "type": "VEC3"
    },
    {
      "bufferView": 1,
      "byteOffset": 65712,
      "componentType": 5126,
      "count": 1967,
      "max": [
        1.8282902240753174,
        0.9964087009429932
      ],
      "min": [
        -0.7627952098846436,
        0.0038519310764968395
      ],
      "type": "VEC2"
    },
    {
      "bufferView": 1,
      "byteOffset": 81448,
      "componentType": 5126,
      "count": 1967,
      "max": [
        0.9753730297088623,
        0.9950854778289795
      ],
      "min": [
        0.0,
        0.0
      ],
      "type": "VEC2"
    },
    {
      "bufferView": 1,
      "byteOffset": 97184,
      "componentType": 5126,
      "count": 1967,
      "max": [
        0.9753730297088623,
        0.9950854778289795
      ],
      "min": [
        0.0,
        0.0
      ],
      "type": "VEC2"
    },
    {
      "bufferView": 0,
      "byteOffset": 24828,
      "componentType": 5125,
      "count": 4860,
      "type": "SCALAR"
    }
  ],
  "asset": {
    "extras": {
      "author": "Khoa Nguyen (https://sketchfab.com/ngdkh)",
      "license": "CC-BY-4.0 (http://creativecommons.org/licenses/by/4.0/)",
      "source": "https://sketchfab.com/3d-models/vietnamese-meat-market-stall-0cd04f3c727347d9899b52b9b88be871",
      "title": "Vietnamese Meat Market stall"
    },
    "generator": "Sketchfab-16.74.0",
    "version": "2.0"
  },
  "bufferViews": [
    {
      "buffer": 0,
      "byteLength": 44268,
      "name": "floatBufferViews",
      "target": 34963
    },
    {
      "buffer": 0,
      "byteLength": 112920,
      "byteOffset": 44268,
      "byteStride": 8,
      "name": "floatBufferViews",
      "target": 34962
    },
    {
      "buffer": 0,
      "byteLength": 112920,
      "byteOffset": 157188,
      "byteStride": 12,
      "name": "floatBufferViews",
      "target": 34962
    }
  ],
  "buffers": [
    {
      "byteLength": 270108,
      "uri": "scene.bin"
    }
  ],
  "images": [
    {
      "uri": "textures/meat_baseColor.png"
    }
  ],
  "materials": [
    {
      "doubleSided": true,
      "name": "meat",
      "pbrMetallicRoughness": {
        "baseColorTexture": {
          "index": 0
        },
        "metallicFactor": 0.0,
        "roughnessFactor": 0.4557926829268293
      }
    }
  ],
  "meshes": [
    {
      "name": "Cube.001_meat_0",
      "primitives": [
        {
          "attributes": {
            "NORMAL": 1,
            "POSITION": 0,
            "TEXCOORD_0": 2,
            "TEXCOORD_1": 3,
            "TEXCOORD_2": 4
          },
          "indices": 5,
          "material": 0,
          "mode": 4
        }
      ]
    },
    {
      "name": "Cube.003_meat_0",
      "primitives": [
        {
          "attributes": {
            "NORMAL": 7,
            "POSITION": 6,
            "TEXCOORD_0": 8,
            "TEXCOORD_1": 9,
            "TEXCOORD_2": 10
          },
          "indices": 11,
          "material": 0,
          "mode": 4
        }
      ]
    }
  ],
  "nodes": [
    {
      "children": [
        1
      ],
      "matrix": [
        1.0,
        0.0,
        0.0,
        0.0,
        0.0,
        2.220446049250313e-16,
        -1.0,
        0.0,
        0.0,
        1.0,
        2.220446049250313e-16,
        0.0,
        0.0,
        0.0,
        0.0,
        1.0
      ],
      "name": "Sketchfab_model"
    },
    {
      "children": [
        2
      ],
      "matrix": [
        0.009999999776482582,
        0.0,
        0.0,
        0.0,
        0.0,
        0.0,
        0.009999999776482582,
        0.0,
        0.0,
        -0.009999999776482582,
        0.0,
        0.0,
        0.0,
        0.0,
        0.0,
        1.0
      ],
      "name": "998778be1209426bb17f10b34145537a.fbx"
    },
    {
      "children": [
        3,
        5
      ],
      "name": "RootNode"
    },
    {
      "children": [
        4
      ],
      "matrix": [
        -0.9297137819050296,
        9.396088193087793e-16,
        0.36828288547779087,
        0.0,
        2.780458058361891e-08,
        0.9999999999999971,
        7.019142579903992e-08,
        0.0,
        -0.36828288547778987,
        7.549788710376657e-08,
        -0.929713781905027,
        0.0,
        -374.44964599609375,
        0.0,
        2.9802322387695313e-05,
        1.0
      ],
      "name": "Cube.001"
    },
    {
      "mesh": 0,
      "name": "Cube.001_meat_0"
    },
    {
      "children": [
        6
      ],
      "matrix": [
        100.0,
        0.0,
        0.0,
        0.0,
        0.0,
        -1.629206793918314e-05,
        -99.99999999999868,
        0.0,
        0.0,
        99.99999999999868,
        -1.629206793918314e-05,
        0.0,
        371.0033264160156,
        0.0,
        0.0,
        1.0
      ],
      "name": "Cube.003"
    },
    {
      "mesh": 1,
      "name": "Cube.003_meat_0"
    }
  ],
  "samplers": [
    {
      "magFilter": 9729,
      "minFilter": 9987,
      "wrapS": 10497,
      "wrapT": 10497
    }
  ],
  "scene": 0,
  "scenes": [
    {
      "name": "Sketchfab_Scene",
      "nodes": [
        0
      ]
    }
  ],
  "textures": [
    {
      "sampler": 0,
      "source": 0
    }
  ]
}
