{
  "accessors": [
    {
      "bufferView": 2,
      "componentType": 5126,
      "count": 190,
      "max": [
        10.884978294372559,
        0.18538671731948853,
        0.7641406655311584
      ],
      "min": [
        -0.3117762804031372,
        -0.18538640439510345,
        -0.23364585638046265
      ],
      "type": "VEC3"
    },
    {
      "bufferView": 2,
      "byteOffset": 2280,
      "componentType": 5126,
      "count": 190,
      "max": [
        0.5283086895942688,
        1.0,
        0.984815776348114
      ],
      "min": [
        -0.982440173625946,
        -1.0,
        -0.984815776348114
      ],
      "type": "VEC3"
    },
    {
      "bufferView": 1,
      "componentType": 5126,
      "count": 190,
      "max": [
        1.0,
        1.0
      ],
      "min": [
        -1.862645149230957e-07,
        0.0
      ],
      "type": "VEC2"
    },
    {
      "bufferView": 0,
      "componentType": 5125,
      "count": 576,
      "type": "SCALAR"
    },
    {
      "bufferView": 2,
      "byteOffset": 4560,
      "componentType": 5126,
      "count": 156,
      "max": [
        10.884978294372559,
        0.16286897659301758,
        0.6061303019523621
      ],
      "min": [
        8.102801322937012,
        -0.16286900639533997,
        -0.23364585638046265
      ],
      "type": "VEC3"
    },
    {
      "bufferView": 2,
      "byteOffset": 6432,
      "componentType": 5126,
      "count": 156,
      "max": [
        0.8635903596878052,
        1.0,
        0.984815776348114
      ],
      "min": [
        -0.5283086895942688,
        -1.0,
        -1.0
      ],
      "type": "VEC3"
    },
    {
      "bufferView": 1,
      "byteOffset": 1520,
      "componentType": 5126,
      "count": 156,
      "max": [
        1.0,
        1.0
      ],
      "min": [
        -1.862645149230957e-07,
        0.0
      ],
      "type": "VEC2"
    },
    {
      "bufferView": 0,
      "byteOffset": 2304,
      "componentType": 5125,
      "count": 468,
      "type": "SCALAR"
    },
    {
      "bufferView": 2,
      "byteOffset": 8304,
      "componentType": 5126,
      "count": 1736,
      "max": [
        1.3664181232452393,
        0.02000012807548046,
        1.3664180040359497
      ],
      "min": [
        -1.3664180040359497,
        -3.290193557739258,
        -1.3664177656173706
      ],
      "type": "VEC3"
    },
    {
      "bufferView": 2,
      "byteOffset": 29136,
      "componentType": 5126,
      "count": 1736,
      "max": [
        0.9989275932312012,
        1.0,
        0.9989275932312012
      ],
      "min": [
        -0.9989275932312012,
        -1.0,
        -0.9989275932312012
      ],
      "type": "VEC3"
    },
    {
      "bufferView": 1,
      "byteOffset": 2768,
      "componentType": 5126,
      "count": 1736,
      "max": [
        1.0000779628753662,
        1.0000779628753662
      ],
      "min": [
        -7.793460827087983e-05,
        -7.796287536621094e-05
      ],
      "type": "VEC2"
    },
    {
      "bufferView": 0,
      "byteOffset": 4176,
      "componentType": 5125,
      "count": 7536,
      "type": "SCALAR"
    },
    {
      "bufferView": 2,
      "byteOffset": 49968,
      "componentType": 5126,
      "count": 106,
      "max": [
        0.8485782742500305,
        0.8271147012710571,
        0.8548107147216797
      ],
      "min": [
        -0.8485782742500305,
        -1.753934383392334,
        -0.8548108339309692
      ],
      "type": "VEC3"
    },
    {
      "bufferView": 2,
      "byteOffset": 51240,
      "componentType": 5126,
      "count": 106,
      "max": [
        0.9883805513381958,
        1.0,
        0.9956377148628235
      ],
      "min": [
        -0.9883805513381958,
        -1.0,
        -0.9956377148628235
      ],
      "type": "VEC3"
    },
    {
      "bufferView": 1,
      "byteOffset": 16656,
      "componentType": 5126,
      "count": 106,
      "max": [
        1.0,
        0.9900000095367432
      ],
      "min": [
        -3.0547380447387695e-07,
        0.0
      ],
      "type": "VEC2"
    },
    {
      "bufferView": 0,
      "byteOffset": 34320,
      "componentType": 5125,
      "count": 300,
      "type": "SCALAR"
    },
    {
      "bufferView": 2,
      "byteOffset": 52512,
      "componentType": 5126,
      "count": 430,
      "max": [
        0.9927088618278503,
        1.0,
        1.0
      ],
      "min": [
        -0.9927088618278503,
        -2.1683316230773926,
        -1.0
      ],
      "type": "VEC3"
    },
    {
      "bufferView": 2,
      "byteOffset": 57672,
      "componentType": 5126,
      "count": 430,
      "max": [
        0.9924612045288086,
        0.7659050822257996,
        0.9997490644454956
      ],
      "min": [
        -0.9924612045288086,
        -0.9994813799858093,
        -0.9997490644454956
      ],
      "type": "VEC3"
    },
    {
      "bufferView": 1,
      "byteOffset": 17504,
      "componentType": 5126,
      "count": 430,
      "max": [
        1.0,
        0.9900000095367432
      ],
      "min": [
        -3.0547380447387695e-07,
        0.0
      ],
      "type": "VEC2"
    },
    {
      "bufferView": 0,
      "byteOffset": 35520,
      "componentType": 5125,
      "count": 2172,
      "type": "SCALAR"
    },
    {
      "bufferView": 2,
      "byteOffset": 62832,
      "componentType": 5126,
      "count": 192,
      "max": [
        0.9976686835289001,
        21.664710998535156,
        0.9906890392303467
      ],
      "min": [
        -0.9976696968078613,
        0.6237640380859375,
        -0.9999997615814209
      ],
      "type": "VEC3"
    },
    {
      "bufferView": 2,
      "byteOffset": 65136,
      "componentType": 5126,
      "count": 192,
      "max": [
        0.9646062254905701,
        0.3355090022087097,
        0.9578543305397034
      ],
      "min": [
        -0.9646062254905701,
        -0.3355136215686798,
        -0.9668644666671753
      ],
      "type": "VEC3"
    },
    {
      "bufferView": 1,
      "byteOffset": 20944,
      "componentType": 5126,
      "count": 192,
      "max": [
        1.0,
        0.49842774868011475
      ],
      "min": [
        1.564621925354004e-07,
        0.4639625549316406
      ],
      "type": "VEC2"
    },
    {
      "bufferView": 0,
      "byteOffset": 44208,
      "componentType": 5125,
      "count": 552,
      "type": "SCALAR"
    },
    {
      "bufferView": 2,
      "byteOffset": 67440,
      "componentType": 5126,
      "count": 531,
      "max": [
        1.1128491163253784,
        22.144777297973633,
        1.1050645112991333
      ],
      "min": [
        -2.8143692016601563,
        -1.0,
        -1.1154471635818481
      ],
      "type": "VEC3"
    },
    {
      "bufferView": 2,
      "byteOffset": 73812,
      "componentType": 5126,
      "count": 531,
      "max": [
        0.9982640743255615,
        0.9999558925628662,
        1.0
      ],
      "min": [
        -0.9976582527160645,
        -0.9999558925628662,
        -0.9962754249572754
      ],
      "type": "VEC3"
    },
    {
      "bufferView": 1,
      "byteOffset": 22480,
      "componentType": 5126,
      "count": 531,
      "max": [
        1.0,
        0.9900000095367432
      ],
      "min": [
        0.0,
        0.0
      ],
      "type": "VEC2"
    },
    {
      "bufferView": 0,
      "byteOffset": 46416,
      "componentType": 5125,
      "count": 2202,
      "type": "SCALAR"
    },
    {
      "bufferView": 2,
      "byteOffset": 80184,
      "componentType": 5126,
      "count": 226,
      "max": [
        1.1128491163253784,
        22.061050415039063,
        1.1050645112991333
      ],
      "min": [
        -2.5740487575531006,
        -0.9062262773513794,
        -1.1154471635818481
      ],
      "type": "VEC3"
    },
    {
      "bufferView": 2,
      "byteOffset": 82896,
      "componentType": 5126,
      "count": 226,
      "max": [
        0.9982640743255615,
        0.9780418872833252,
        0.990197479724884
      ],
      "min": [
        -0.9971775412559509,
        -0.4179799556732178,
        -0.9995068907737732
      ],
      "type": "VEC3"
    },
    {
      "bufferView": 1,
      "byteOffset": 26728,
      "componentType": 5126,
      "count": 226,
      "max": [
        1.0,
        0.5
      ],
      "min": [
        0.0,
        0.0
      ],
      "type": "VEC2"
    },
    {
      "bufferView": 0,
      "byteOffset": 55224,
      "componentType": 5125,
      "count": 648,
      "type": "SCALAR"
    },
    {
      "bufferView": 2,
      "byteOffset": 85608,
      "componentType": 5126,
      "count": 360,
      "max": [
        1.0927221775054932,
        21.83961296081543,
        1.085074782371521
      ],
      "min": [
        -1.0927221775054932,
        0.45739907026290894,
        -1.0952750444412231
      ],
      "type": "VEC3"
    },
    {
      "bufferView": 2,
      "byteOffset": 89928,
      "componentType": 5126,
      "count": 360,
      "max": [
        0.9971775412559509,
        0.3355090022087097,
        0.990197479724884
      ],
      "min": [
        -0.9971775412559509,
        -0.3355136215686798,
        -0.9995068907737732
      ],
      "type": "VEC3"
    },
    {
      "bufferView": 1,
      "byteOffset": 28536,
      "componentType": 5126,
      "count": 360,
      "max": [
        1.0,
        0.49842774868011475
      ],
      "min": [
        1.564621925354004e-07,
        0.3333333730697632
      ],
      "type": "VEC2"
    },
    {
      "bufferView": 0,
      "byteOffset": 57816,
      "componentType": 5125,
      "count": 1104,
      "type": "SCALAR"
    },
    {
      "bufferView": 2,
      "byteOffset": 94248,
      "componentType": 5126,
      "count": 34,
      "max": [
        -1.3608098030090332,
        15.012510299682617,
        0.7829678058624268
      ],
      "min": [
        -2.6742920875549316,
        13.514436721801758,
        -0.7829504609107971
      ],
      "type": "VEC3"
    },
    {
      "bufferView": 2,
      "byteOffset": 94656,
      "componentType": 5126,
      "count": 34,
      "max": [
        0.9084563851356506,
        0.9610129594802856,
        0.922092854976654
      ],
      "min": [
        -0.9899674654006958,
        -0.9999558925628662,
        -0.922092854976654
      ],
      "type": "VEC3"
    },
    {
      "bufferView": 1,
      "byteOffset": 31416,
      "componentType": 5126,
      "count": 34,
      "max": [
        1.0,
        0.0
      ],
      "min": [
        0.0,
        0.0
      ],
      "type": "VEC2"
    },
    {
      "bufferView": 0,
      "byteOffset": 62232,
      "componentType": 5125,
      "count": 96,
      "type": "SCALAR"
    }
  ],
  "asset": {
    "extras": {
      "author": "Anhbodoi36 (https://sketchfab.com/Anhbodoi36)",
      "license": "CC-BY-4.0 (http://creativecommons.org/licenses/by/4.0/)",
      "source": "https://sketchfab.com/3d-models/ha-noi-specialities-80552b6988f949ddbb36e46b145f70d0",
      "title": "Ha Noi specialities"
    },
    "generator": "Sketchfab-16.12.0",
    "version": "2.0"
  },
  "bufferViews": [
    {
      "buffer": 0,
      "byteLength": 62616,
      "name": "floatBufferViews",
      "target": 34963
    },
    {
      "buffer": 0,
      "byteLength": 31688,
      "byteOffset": 62616,
      "byteStride": 8,
      "name": "floatBufferViews",
      "target": 34962
    },
    {
      "buffer": 0,
      "byteLength": 95064,
      "byteOffset": 94304,
      "byteStride": 12,
      "name": "floatBufferViews",
      "target": 34962
    }
  ],
  "buffers": [
    {
      "byteLength": 189368,
      "uri": "scene.bin"
    }
  ],
  "extensionsUsed": [
    "KHR_materials_transmission"
  ],
  "materials": [
    {
      "doubleSided": true,
      "name": "Material.006",
      "pbrMetallicRoughness": {
        "baseColorFactor": [
          0.603978,
          0.603978,
          0.603978,
          1.0
        ],
        "metallicFactor": 0.718182,
        "roughnessFactor": 0.154545
      }
    },
    {
      "doubleSided": true,
      "name": "Material.030",
      "pbrMetallicRoughness": {
        "baseColorFactor": [
          0.108899,
          0.137357,
          0.137357,
          1.0
        ],
        "metallicFactor": 0.963636,
        "roughnessFactor": 0.231818
      }
    },
    {
      "doubleSided": true,
      "name": "Material.028",
      "pbrMetallicRoughness": {
        "baseColorFactor": [
          0.0954776,
          0.135793,
          0.800126,
          1.0
        ],
        "metallicFactor": 0.0,
        "roughnessFactor": 0.359091
      }
    },
    {
      "alphaMode": "BLEND",
      "doubleSided": true,
      "extensions": {
        "KHR_materials_transmission": {
          "transmissionFactor": 1.0
        }
      },
      "name": "tra_da",
      "pbrMetallicRoughness": {
        "baseColorFactor": [
          0.793676,
          0.954999,
          0.129587,
          0.25
        ],
        "metallicFactor": 0.0,
        "roughnessFactor": 0.0
      }
    },
    {
      "alphaMode": "BLEND",
      "doubleSided": true,
      "extensions": {
        "KHR_materials_transmission": {
          "transmissionFactor": 1.0
        }
      },
      "name": "glass",
      "pbrMetallicRoughness": {
        "baseColorFactor": [
          0.292565,
          0.800119,
          0.585572,
          0.25
        ],
        "metallicFactor": 0.0,
        "roughnessFactor": 0.0727273
      }
    },
    {
      "doubleSided": true,
      "name": "Material.024",
      "pbrMetallicRoughness": {
        "baseColorFactor": [
          0.137395,
          0.0878236,
          0.0271892,
          1.0
        ],
        "metallicFactor": 0.870968,
        "roughnessFactor": 0.790323
      }
    },
    {
      "doubleSided": true,
      "name": "Material.014",
      "pbrMetallicRoughness": {
        "baseColorFactor": [
          0.0,
          0.0,
          0.0,
          1.0
        ],
        "metallicFactor": 0.0,
        "roughnessFactor": 0.5
      }
    },
    {
      "doubleSided": true,
      "name": "Material.025",
      "pbrMetallicRoughness": {
        "baseColorFactor": [
          1.0,
          0.6607460000000001,
          0.292646,
          1.0
        ],
        "metallicFactor": 0.817204,
        "roughnessFactor": 0.258065
      }
    },
    {
      "doubleSided": true,
      "name": "Material.009",
      "pbrMetallicRoughness": {
        "baseColorFactor": [
          0.500445,
          0.597687,
          0.800032,
          1.0
        ],
        "metallicFactor": 0.945455,
        "roughnessFactor": 0.209091
      }
    }
  ],
  "meshes": [
    {
      "name": "Object_0",
      "primitives": [
        {
          "attributes": {
            "NORMAL": 1,
            "POSITION": 0,
            "TEXCOORD_0": 2
          },
          "indices": 3,
          "material": 0,
          "mode": 4
        }
      ]
    },
    {
      "name": "Object_1",
      "primitives": [
        {
          "attributes": {
            "NORMAL": 5,
            "POSITION": 4,
            "TEXCOORD_0": 6
          },
          "indices": 7,
          "material": 1,
          "mode": 4
        }
      ]
    },
    {
      "name": "Object_2",
      "primitives": [
        {
          "attributes": {
            "NORMAL": 9,
            "POSITION": 8,
            "TEXCOORD_0": 10
          },
          "indices": 11,
          "material": 2,
          "mode": 4
        }
      ]
    },
    {
      "name": "Object_3",
      "primitives": [
        {
          "attributes": {
            "NORMAL": 13,
            "POSITION": 12,
            "TEXCOORD_0": 14
          },
          "indices": 15,
          "material": 3,
          "mode": 4
        }
      ]
    },
    {
      "name": "Object_4",
      "primitives": [
        {
          "attributes": {
            "NORMAL": 17,
            "POSITION": 16,
            "TEXCOORD_0": 18
          },
          "indices": 19,
          "material": 4,
          "mode": 4
        }
      ]
    },
    {
      "name": "Object_5",
      "primitives": [
        {
          "attributes": {
            "NORMAL": 21,
            "POSITION": 20,
            "TEXCOORD_0": 22
          },
          "indices": 23,
          "material": 5,
          "mode": 4
        }
      ]
    },
    {
      "name": "Object_6",
      "primitives": [
        {
          "attributes": {
            "NORMAL": 25,
            "POSITION": 24,
            "TEXCOORD_0": 26
          },
          "indices": 27,
          "material": 6,
          "mode": 4
        }
      ]
    },
    {
      "name": "Object_7",
      "primitives": [
        {
          "attributes": {
            "NORMAL": 29,
            "POSITION": 28,
            "TEXCOORD_0": 30
          },
          "indices": 31,
          "material": 7,
          "mode": 4
        }
      ]
    },
    {
      "name": "Object_8",
      "primitives": [
        {
          "attributes": {
            "NORMAL": 33,
            "POSITION": 32,
            "TEXCOORD_0": 34
          },
          "indices": 35,
          "material": 0,
          "mode": 4
        }
      ]
    },
    {
      "name": "Object_9",
      "primitives": [
        {
          "attributes": {
            "NORMAL": 37,
            "POSITION": 36,
            "TEXCOORD_0": 38
          },
          "indices": 39,
          "material": 8,
          "mode": 4
        }
      ]
    }
  ],
  "nodes": [
    {
      "children": [
        1
      ],
      "matrix": [
        1.0,
        0.0,
        0.0,
        0.0,
        0.0,
        2.220446049250313e-16,
        -1.0,
        0.0,
        0.0,
        1.0,
        2.220446049250313e-16,
        0.0,
        0.0,
        0.0,
        0.0,
        1.0
      ],
      "name": "Sketchfab_model"
    },
    {
      "children": [
        2
      ],
      "name": "root"
    },
    {
      "children": [
        3,
        6,
        8,
        10,
        12
      ],
      "matrix": [
        1.0,
        0.0,
        0.0,
        0.0,
        0.0,
        2.220446049250313e-16,
        1.0,
        0.0,
        0.0,
        -1.0,
        2.220446049250313e-16,
        0.0,
        0.0,
        0.0,
        0.0,
        1.0
      ],
      "name": "GLTF_SceneRootNode"
    },
    {
      "children": [
        4,
        5
      ],
      "matrix": [
        -0.9982370846454662,
        -0.004801743037852021,
        0.0591579758132335,
        0.0,
        0.014001831148661957,
        0.9495376516447711,
        0.31334038493851635,
        0.0,
        -0.05767730544161231,
        0.3136163123511462,
        -0.9477964639437435,
        0.0,
        5.726261138916016,
        0.2276601791381836,
        2.266329288482666,
        1.0
      ],
      "name": "Plane.029_0"
    },
    {
      "mesh": 0,
      "name": "Object_4"
    },
    {
      "mesh": 1,
      "name": "Object_5"
    },
    {
      "children": [
        7
      ],
      "matrix": [
        1.6748286485671997,
        0.0,
        0.0,
        0.0,
        0.0,
        1.6748286485671997,
        0.0,
        0.0,
        0.0,
        0.0,
        1.6748286485671997,
        0.0,
        0.013315200805664063,
        5.55636739730835,
        -0.16549158096313477,
        1.0
      ],
      "name": "Plane.028_1"
    },
    {
      "mesh": 2,
      "name": "Object_7"
    },
    {
      "children": [
        9
      ],
      "matrix": [
        0.6173097491264343,
        0.0,
        0.0,
        0.0,
        0.0,
        0.6173097491264343,
        0.0,
        0.0,
        0.0,
        0.0,
        0.6173097491264343,
        0.0,
        0.7300930023193359,
        6.923245906829834,
        -0.16929960250854492,
        1.0
      ],
      "name": "Cylinder.017_2"
    },
    {
      "mesh": 3,
      "name": "Object_9"
    },
    {
      "children": [
        11
      ],
      "matrix": [
        0.6173097491264343,
        0.0,
        0.0,
        0.0,
        0.0,
        0.6173097491264343,
        0.0,
        0.0,
        0.0,
        0.0,
        0.6173097491264343,
        0.0,
        0.7300930023193359,
        6.923245906829834,
        -0.16929960250854492,
        1.0
      ],
      "name": "Cylinder.010_3"
    },
    {
      "mesh": 4,
      "name": "Object_11"
    },
    {
      "children": [
        13,
        14,
        15,
        16,
        17
      ],
      "matrix": [
        0.32937875543539014,
        -0.19685312098906346,
        -0.011167368184097071,
        0.0,
        -0.19693661353179706,
        -0.32951847436863646,
        3.0788427606942105e-07,
        0.0,
        -0.009586023116539805,
        0.0057287252008273,
        -0.3837206518250735,
        0.0,
        -0.8494701385498047,
        7.585801601409912,
        -0.1721363067626953,
        1.0
      ],
      "name": "Cylinder.007_4"
    },
    {
      "mesh": 5,
      "name": "Object_13"
    },
    {
      "mesh": 6,
      "name": "Object_14"
    },
    {
      "mesh": 7,
      "name": "Object_15"
    },
    {
      "mesh": 8,
      "name": "Object_16"
    },
    {
      "mesh": 9,
      "name": "Object_17"
    }
  ],
  "scene": 0,
  "scenes": [
    {
      "name": "Sketchfab_Scene",
      "nodes": [
        0
      ]
    }
  ]
}
