{
  "accessors": [
    {
      "bufferView": 2,
      "componentType": 5126,
      "count": 3099,
      "max": [
        2.8233728408813477,
        1.3891587257385254,
        1.2062879800796509
      ],
      "min": [
        -2.2779688835144043,
        -2.1345443725585938,
        -0.021017074584960938
      ],
      "type": "VEC3"
    },
    {
      "bufferView": 2,
      "byteOffset": 37188,
      "componentType": 5126,
      "count": 3099,
      "max": [
        0.9980420470237732,
        0.9986172914505005,
        1.0
      ],
      "min": [
        -0.998604416847229,
        -0.9962607622146606,
        -0.9998693466186523
      ],
      "type": "VEC3"
    },
    {
      "bufferView": 1,
      "componentType": 5126,
      "count": 3099,
      "max": [
        0.9735437035560608,
        0.9987051486968994
      ],
      "min": [
        0.0038647104520350695,
        0.0030493992380797863
      ],
      "type": "VEC2"
    },
    {
      "bufferView": 0,
      "componentType": 5125,
      "count": 7479,
      "type": "SCALAR"
    },
    {
      "bufferView": 2,
      "byteOffset": 74376,
      "componentType": 5126,
      "count": 2738,
      "max": [
        1.6230359077453613,
        3.3871634006500244,
        1.2215522527694702
      ],
      "min": [
        -2.1557087898254395,
        -0.8849685192108154,
        -0.021017074584960938
      ],
      "type": "VEC3"
    },
    {
      "bufferView": 2,
      "byteOffset": 107232,
      "componentType": 5126,
      "count": 2738,
      "max": [
        0.9984080791473389,
        0.9991127252578735,
        1.0
      ],
      "min": [
        -0.9975942373275757,
        -0.9999188780784607,
        -0.9998694062232971
      ],
      "type": "VEC3"
    },
    {
      "bufferView": 1,
      "byteOffset": 24792,
      "componentType": 5126,
      "count": 2738,
      "max": [
        0.9698407053947449,
        0.9987051486968994
      ],
      "min": [
        0.0038647104520350695,
        0.006576472893357277
      ],
      "type": "VEC2"
    },
    {
      "bufferView": 0,
      "byteOffset": 29916,
      "componentType": 5125,
      "count": 6492,
      "type": "SCALAR"
    },
    {
      "bufferView": 2,
      "byteOffset": 140088,
      "componentType": 5126,
      "count": 2616,
      "max": [
        0.8694758415222168,
        1.459977149963379,
        1.3716261386871338
      ],
      "min": [
        -2.864321708679199,
        -2.04133677482605,
        -0.01901719905436039
      ],
      "type": "VEC3"
    },
    {
      "bufferView": 2,
      "byteOffset": 171480,
      "componentType": 5126,
      "count": 2616,
      "max": [
        0.9963637590408325,
        0.9992715120315552,
        1.0
      ],
      "min": [
        -0.9952160120010376,
        -0.9996352791786194,
        -0.9954769015312195
      ],
      "type": "VEC3"
    },
    {
      "bufferView": 1,
      "byteOffset": 46696,
      "componentType": 5126,
      "count": 2616,
      "max": [
        0.983727216720581,
        0.9987051486968994
      ],
      "min": [
        0.0038647104520350695,
        0.0030493992380797863
      ],
      "type": "VEC2"
    },
    {
      "bufferView": 0,
      "byteOffset": 55884,
      "componentType": 5125,
      "count": 6228,
      "type": "SCALAR"
    }
  ],
  "asset": {
    "extras": {
      "author": "Khoa Nguyen (https://sketchfab.com/ngdkh)",
      "license": "CC-BY-4.0 (http://creativecommons.org/licenses/by/4.0/)",
      "source": "https://sketchfab.com/3d-models/vietnamese-vegetable-market-a3c935d758624c8f866bc27776f86712",
      "title": "Vietnamese Vegetable Market"
    },
    "generator": "Sketchfab-16.74.0",
    "version": "2.0"
  },
  "bufferViews": [
    {
      "buffer": 0,
      "byteLength": 80796,
      "name": "floatBufferViews",
      "target": 34963
    },
    {
      "buffer": 0,
      "byteLength": 67624,
      "byteOffset": 80796,
      "byteStride": 8,
      "name": "floatBufferViews",
      "target": 34962
    },
    {
      "buffer": 0,
      "byteLength": 202872,
      "byteOffset": 148420,
      "byteStride": 12,
      "name": "floatBufferViews",
      "target": 34962
    }
  ],
  "buffers": [
    {
      "byteLength": 351292,
      "uri": "scene.bin"
    }
  ],
  "images": [
    {
      "uri": "textures/veget_stall_baseColor.png"
    },
    {
      "uri": "textures/veget_stall_metallicRoughness.png"
    }
  ],
  "materials": [
    {
      "alphaMode": "BLEND",
      "doubleSided": true,
      "name": "veget_stall",
      "occlusionTexture": {
        "index": 1,
        "strength": 0.38871951219512196
      },
      "pbrMetallicRoughness": {
        "baseColorTexture": {
          "index": 0
        },
        "metallicFactor": 0.0,
        "metallicRoughnessTexture": {
          "index": 1
        },
        "roughnessFactor": 0.7
      }
    }
  ],
  "meshes": [
    {
      "name": "Circle.006_veget stall_0",
      "primitives": [
        {
          "attributes": {
            "NORMAL": 1,
            "POSITION": 0,
            "TEXCOORD_0": 2
          },
          "indices": 3,
          "material": 0,
          "mode": 4
        }
      ]
    },
    {
      "name": "Circle.019_veget stall_0",
      "primitives": [
        {
          "attributes": {
            "NORMAL": 5,
            "POSITION": 4,
            "TEXCOORD_0": 6
          },
          "indices": 7,
          "material": 0,
          "mode": 4
        }
      ]
    },
    {
      "name": "PlasticChair3.001_veget stall_0",
      "primitives": [
        {
          "attributes": {
            "NORMAL": 9,
            "POSITION": 8,
            "TEXCOORD_0": 10
          },
          "indices": 11,
          "material": 0,
          "mode": 4
        }
      ]
    }
  ],
  "nodes": [
    {
      "children": [
        1
      ],
      "matrix": [
        1.0,
        0.0,
        0.0,
        0.0,
        0.0,
        2.220446049250313e-16,
        -1.0,
        0.0,
        0.0,
        1.0,
        2.220446049250313e-16,
        0.0,
        0.0,
        0.0,
        0.0,
        1.0
      ],
      "name": "Sketchfab_model"
    },
    {
      "children": [
        2
      ],
      "matrix": [
        0.009999999776482582,
        0.0,
        0.0,
        0.0,
        0.0,
        0.0,
        0.009999999776482582,
        0.0,
        0.0,
        -0.009999999776482582,
        0.0,
        0.0,
        0.0,
        0.0,
        0.0,
        1.0
      ],
      "name": "3bdbf0786eec4a5e99e2dc2ccf67b9ac.fbx"
    },
    {
      "children": [
        3,
        5,
        7
      ],
      "name": "RootNode"
    },
    {
      "children": [
        4
      ],
      "matrix": [
        100.0,
        0.0,
        0.0,
        0.0,
        -0.0,
        -1.629206793918314e-05,
        -99.99999999999868,
        0.0,
        0.0,
        99.99999999999868,
        -1.629206793918314e-05,
        0.0,
        -57.45371627807617,
        0.0,
        -110.80360412597656,
        1.0
      ],
      "name": "Circle.006"
    },
    {
      "mesh": 0,
      "name": "Circle.006_veget stall_0"
    },
    {
      "children": [
        6
      ],
      "matrix": [
        100.0,
        0.0,
        0.0,
        0.0,
        0.0,
        -1.629206793918314e-05,
        -99.99999999999868,
        0.0,
        0.0,
        99.99999999999868,
        -1.629206793918314e-05,
        0.0,
        42.19963073730469,
        0.0011302584316581488,
        -310.6020812988281,
        1.0
      ],
      "name": "Circle.019"
    },
    {
      "mesh": 1,
      "name": "Circle.019_veget stall_0"
    },
    {
      "children": [
        8
      ],
      "matrix": [
        100.0,
        0.0,
        0.0,
        0.0,
        -0.0,
        -1.629206793918314e-05,
        -99.99999999999868,
        0.0,
        0.0,
        99.99999999999868,
        -1.629206793918314e-05,
        0.0,
        -246.4416046142578,
        0.0,
        -303.8313903808594,
        1.0
      ],
      "name": "PlasticChair3.001"
    },
    {
      "mesh": 2,
      "name": "PlasticChair3.001_veget stall_0"
    }
  ],
  "samplers": [
    {
      "magFilter": 9729,
      "minFilter": 9987,
      "wrapS": 10497,
      "wrapT": 10497
    }
  ],
  "scene": 0,
  "scenes": [
    {
      "name": "Sketchfab_Scene",
      "nodes": [
        0
      ]
    }
  ],
  "textures": [
    {
      "sampler": 0,
      "source": 0
    },
    {
      "sampler": 0,
      "source": 1
    }
  ]
}
