{
  "accessors": [
    {
      "bufferView": 2,
      "componentType": 5126,
      "count": 3477,
      "max": [
        0.9376490116119385,
        1.0111533403396606,
        2.33290958404541
      ],
      "min": [
        -0.6934285759925842,
        -0.9767881035804749,
        -0.00025483706849627197
      ],
      "type": "VEC3"
    },
    {
      "bufferView": 2,
      "byteOffset": 41724,
      "componentType": 5126,
      "count": 3477,
      "max": [
        0.9994668960571289,
        0.9998935461044312,
        0.9998970031738281
      ],
      "min": [
        -0.9997863173484802,
        -0.999495267868042,
        -0.9932782649993896
      ],
      "type": "VEC3"
    },
    {
      "bufferView": 1,
      "componentType": 5126,
      "count": 3477,
      "max": [
        0.994414746761322,
        0.998974084854126
      ],
      "min": [
        0.00015556119615212083,
        0.024672243744134903
      ],
      "type": "VEC2"
    },
    {
      "bufferView": 1,
      "byteOffset": 27816,
      "componentType": 5126,
      "count": 3477,
      "max": [
        0.994414746761322,
        0.9994463324546814
      ],
      "min": [
        0.0,
        0.0
      ],
      "type": "VEC2"
    },
    {
      "bufferView": 1,
      "byteOffset": 55632,
      "componentType": 5126,
      "count": 3477,
      "max": [
        0.994414746761322,
        0.9994463324546814
      ],
      "min": [
        0.0,
        0.0
      ],
      "type": "VEC2"
    },
    {
      "bufferView": 1,
      "byteOffset": 83448,
      "componentType": 5126,
      "count": 3477,
      "max": [
        0.994414746761322,
        0.998974084854126
      ],
      "min": [
        0.00015556119615212083,
        0.024672243744134903
      ],
      "type": "VEC2"
    },
    {
      "bufferView": 0,
      "componentType": 5125,
      "count": 10269,
      "type": "SCALAR"
    },
    {
      "bufferView": 2,
      "byteOffset": 83448,
      "componentType": 5126,
      "count": 1402,
      "max": [
        0.8701488971710205,
        0.8255605101585388,
        0.555956244468689
      ],
      "min": [
        -0.39621204137802124,
        -0.8555083870887756,
        -0.003028661012649536
      ],
      "type": "VEC3"
    },
    {
      "bufferView": 2,
      "byteOffset": 100272,
      "componentType": 5126,
      "count": 1402,
      "max": [
        0.997995138168335,
        0.9998060464859009,
        0.9999274015426636
      ],
      "min": [
        -0.996305525302887,
        -0.999514639377594,
        -0.999928891658783
      ],
      "type": "VEC3"
    },
    {
      "bufferView": 1,
      "byteOffset": 111264,
      "componentType": 5126,
      "count": 1402,
      "max": [
        0.9834983944892883,
        0.9887678623199463
      ],
      "min": [
        0.05370539799332619,
        0.04555841162800789
      ],
      "type": "VEC2"
    },
    {
      "bufferView": 1,
      "byteOffset": 122480,
      "componentType": 5126,
      "count": 1402,
      "max": [
        0.9775940179824829,
        0.9844475984573364
      ],
      "min": [
        0.0,
        0.0
      ],
      "type": "VEC2"
    },
    {
      "bufferView": 1,
      "byteOffset": 133696,
      "componentType": 5126,
      "count": 1402,
      "max": [
        0.9775940179824829,
        0.9844475984573364
      ],
      "min": [
        0.0,
        0.0
      ],
      "type": "VEC2"
    },
    {
      "bufferView": 0,
      "byteOffset": 41076,
      "componentType": 5125,
      "count": 2775,
      "type": "SCALAR"
    },
    {
      "bufferView": 2,
      "byteOffset": 117096,
      "componentType": 5126,
      "count": 3525,
      "max": [
        1.1582688093185425,
        1.1632920503616333,
        2.1662514209747314
      ],
      "min": [
        -1.148626446723938,
        -1.1892811059951782,
        -0.00010499227209948003
      ],
      "type": "VEC3"
    },
    {
      "bufferView": 2,
      "byteOffset": 159396,
      "componentType": 5126,
      "count": 3525,
      "max": [
        0.997705340385437,
        0.9997443556785583,
        0.9999370574951172
      ],
      "min": [
        -0.9998577833175659,
        -0.9982794523239136,
        -1.0
      ],
      "type": "VEC3"
    },
    {
      "bufferView": 1,
      "byteOffset": 144912,
      "componentType": 5126,
      "count": 3525,
      "max": [
        0.9971843361854553,
        0.9963406324386597
      ],
      "min": [
        0.012835726141929626,
        0.028169751167297363
      ],
      "type": "VEC2"
    },
    {
      "bufferView": 1,
      "byteOffset": 173112,
      "componentType": 5126,
      "count": 3525,
      "max": [
        0.9775940179824829,
        0.996126651763916
      ],
      "min": [
        0.0,
        0.0
      ],
      "type": "VEC2"
    },
    {
      "bufferView": 1,
      "byteOffset": 201312,
      "componentType": 5126,
      "count": 3525,
      "max": [
        0.9775940179824829,
        0.996126651763916
      ],
      "min": [
        0.0,
        0.0
      ],
      "type": "VEC2"
    },
    {
      "bufferView": 0,
      "byteOffset": 52176,
      "componentType": 5125,
      "count": 7920,
      "type": "SCALAR"
    }
  ],
  "asset": {
    "extras": {
      "author": "Khoa Nguyen (https://sketchfab.com/ngdkh)",
      "license": "CC-BY-4.0 (http://creativecommons.org/licenses/by/4.0/)",
      "source": "https://sketchfab.com/3d-models/trash-bins-41adbcf80c4e4bcebc99e29b9c4a2f6f",
      "title": "Trash Bins"
    },
    "generator": "Sketchfab-16.74.0",
    "version": "2.0"
  },
  "bufferViews": [
    {
      "buffer": 0,
      "byteLength": 83856,
      "name": "floatBufferViews",
      "target": 34963
    },
    {
      "buffer": 0,
      "byteLength": 229512,
      "byteOffset": 83856,
      "byteStride": 8,
      "name": "floatBufferViews",
      "target": 34962
    },
    {
      "buffer": 0,
      "byteLength": 201696,
      "byteOffset": 313368,
      "byteStride": 12,
      "name": "floatBufferViews",
      "target": 34962
    }
  ],
  "buffers": [
    {
      "byteLength": 515064,
      "uri": "scene.bin"
    }
  ],
  "extensionsUsed": [
    "KHR_materials_specular",
    "KHR_materials_transmission"
  ],
  "images": [
    {
      "uri": "textures/food_and_drink_3_baseColor.png"
    },
    {
      "uri": "textures/food_n_drink_4_baseColor.png"
    },
    {
      "uri": "textures/food_n_drink_4_transmission.png"
    }
  ],
  "materials": [
    {
      "doubleSided": true,
      "extensions": {
        "KHR_materials_specular": {
          "specularColorFactor": [
            1.0,
            1.0,
            1.0
          ],
          "specularFactor": 0.0
        }
      },
      "name": "food_and_drink_3",
      "pbrMetallicRoughness": {
        "baseColorTexture": {
          "index": 0
        },
        "metallicFactor": 0.0,
        "roughnessFactor": 0.5
      }
    },
    {
      "alphaMode": "BLEND",
      "doubleSided": true,
      "extensions": {
        "KHR_materials_transmission": {
          "transmissionFactor": 1.0,
          "transmissionTexture": {
            "index": 2
          }
        }
      },
      "name": "food_n_drink_4",
      "pbrMetallicRoughness": {
        "baseColorTexture": {
          "index": 1
        },
        "metallicFactor": 0.1,
        "roughnessFactor": 0.45
      }
    }
  ],
  "meshes": [
    {
      "name": "Cube.001_food and drink 3_0",
      "primitives": [
        {
          "attributes": {
            "NORMAL": 1,
            "POSITION": 0,
            "TEXCOORD_0": 2,
            "TEXCOORD_1": 3,
            "TEXCOORD_2": 4,
            "TEXCOORD_3": 5
          },
          "indices": 6,
          "material": 0,
          "mode": 4
        }
      ]
    },
    {
      "name": "Cube.001_food n drink 4_0",
      "primitives": [
        {
          "attributes": {
            "NORMAL": 8,
            "POSITION": 7,
            "TEXCOORD_0": 9,
            "TEXCOORD_1": 10,
            "TEXCOORD_2": 11
          },
          "indices": 12,
          "material": 1,
          "mode": 4
        }
      ]
    },
    {
      "name": "Cylinder.001_food n drink 4_0",
      "primitives": [
        {
          "attributes": {
            "NORMAL": 14,
            "POSITION": 13,
            "TEXCOORD_0": 15,
            "TEXCOORD_1": 16,
            "TEXCOORD_2": 17
          },
          "indices": 18,
          "material": 1,
          "mode": 4
        }
      ]
    }
  ],
  "nodes": [
    {
      "children": [
        1
      ],
      "matrix": [
        1.0,
        0.0,
        0.0,
        0.0,
        0.0,
        2.220446049250313e-16,
        -1.0,
        0.0,
        0.0,
        1.0,
        2.220446049250313e-16,
        0.0,
        0.0,
        0.0,
        0.0,
        1.0
      ],
      "name": "Sketchfab_model"
    },
    {
      "children": [
        2
      ],
      "matrix": [
        0.009999999776482582,
        0.0,
        0.0,
        0.0,
        0.0,
        0.0,
        0.009999999776482582,
        0.0,
        0.0,
        -0.009999999776482582,
        0.0,
        0.0,
        0.0,
        0.0,
        0.0,
        1.0
      ],
      "name": "0d51afdf51df41b799a6719b6a795962.fbx"
    },
    {
      "children": [
        3,
        6
      ],
      "name": "RootNode"
    },
    {
      "children": [
        4,
        5
      ],
      "matrix": [
        100.0,
        0.0,
        0.0,
        0.0,
        0.0,
        -1.629206793918314e-05,
        -99.99999999999868,
        0.0,
        0.0,
        99.99999999999868,
        -1.629206793918314e-05,
        0.0,
        4.191138744354248,
        0.4406333565711975,
        -95.64839172363281,
        1.0
      ],
      "name": "Cube.001"
    },
    {
      "mesh": 0,
      "name": "Cube.001_food and drink 3_0"
    },
    {
      "mesh": 1,
      "name": "Cube.001_food n drink 4_0"
    },
    {
      "children": [
        7
      ],
      "matrix": [
        54.12461937988047,
        1.1138680298430671e-06,
        25.778266443288384,
        0.0,
        25.778266443288235,
        -9.236573629873383e-06,
        -54.12461937987977,
        0.0,
        4.155995249797837e-06,
        84.00081634521382,
        -1.2355659574206202e-05,
        0.0,
        0.0,
        0.0,
        107.51008605957031,
        1.0
      ],
      "name": "Cylinder.001"
    },
    {
      "mesh": 2,
      "name": "Cylinder.001_food n drink 4_0"
    }
  ],
  "samplers": [
    {
      "magFilter": 9729,
      "minFilter": 9987,
      "wrapS": 10497,
      "wrapT": 10497
    }
  ],
  "scene": 0,
  "scenes": [
    {
      "name": "Sketchfab_Scene",
      "nodes": [
        0
      ]
    }
  ],
  "textures": [
    {
      "sampler": 0,
      "source": 0
    },
    {
      "sampler": 0,
      "source": 1
    },
    {
      "sampler": 0,
      "source": 2
    }
  ]
}
